<svg width="32" height="32" viewBox="0 0 32 32" fill="none" xmlns="http://www.w3.org/2000/svg">
<rect width="32" height="32" rx="16" fill="#19B2E6"/>
<path d="M22.4 8.63636H21.6V7.81818C21.6 7.36818 21.24 7 20.8 7C20.36 7 20 7.36818 20 7.81818V8.63636H12V7.81818C12 7.36818 11.64 7 11.2 7C10.76 7 10.4 7.36818 10.4 7.81818V8.63636H9.6C8.72 8.63636 8 9.37273 8 10.2727V23.3636C8 24.2636 8.72 25 9.6 25H22.4C23.28 25 24 24.2636 24 23.3636V10.2727C24 9.37273 23.28 8.63636 22.4 8.63636ZM21.6 23.3636H10.4C9.96 23.3636 9.6 22.9955 9.6 22.5455V12.7273H22.4V22.5455C22.4 22.9955 22.04 23.3636 21.6 23.3636Z" fill="white"/>
</svg>
