<svg width="39" height="39" viewBox="0 0 39 39" fill="none" xmlns="http://www.w3.org/2000/svg">
<rect x="0.5" y="0.5" width="38" height="38" rx="19" stroke="#DEDEDE"/>
<path d="M14 19.4958C14 19.6426 14.0265 19.7781 14.0796 19.9023C14.1385 20.0265 14.2269 20.1451 14.3448 20.258L21.2318 26.712C21.4322 26.904 21.6739 27 21.9568 27C22.1513 27 22.3251 26.9548 22.4784 26.8645C22.6375 26.7798 22.7642 26.6612 22.8585 26.5088C22.9528 26.3619 23 26.1982 23 26.0175C23 25.7465 22.891 25.5065 22.6729 25.2976L16.4666 19.4958L22.6729 13.694C22.891 13.485 23 13.2479 23 12.9825C23 12.7962 22.9528 12.6296 22.8585 12.4828C22.7642 12.336 22.6375 12.2202 22.4784 12.1355C22.3251 12.0452 22.1513 12 21.9568 12C21.6739 12 21.4322 12.0932 21.2318 12.2795L14.3448 18.7335C14.2269 18.8464 14.1385 18.965 14.0796 19.0892C14.0265 19.2134 14 19.349 14 19.4958Z" fill="#848484"/>
</svg>
