<svg width="32" height="32" viewBox="0 0 32 32" fill="none" xmlns="http://www.w3.org/2000/svg">
<g clip-path="url(#clip0_22_7598)">
<rect width="32" height="32" rx="16" fill="#19B2E6"/>
<path d="M16 10C17.1 10 18 10.9 18 12C18 13.1 17.1 14 16 14C14.9 14 14 13.1 14 12C14 10.9 14.9 10 16 10ZM16 20C18.7 20 21.8 21.29 22 22H10C10.23 21.28 13.31 20 16 20ZM16 8C13.79 8 12 9.79 12 12C12 14.21 13.79 16 16 16C18.21 16 20 14.21 20 12C20 9.79 18.21 8 16 8ZM16 18C13.33 18 8 19.34 8 22V24H24V22C24 19.34 18.67 18 16 18Z" fill="white"/>
</g>
<defs>
<clipPath id="clip0_22_7598">
<rect width="32" height="32" rx="16" fill="white"/>
</clipPath>
</defs>
</svg>
