<svg width="32" height="32" viewBox="0 0 32 32" fill="none" xmlns="http://www.w3.org/2000/svg">
<rect width="32" height="32" fill="white"/>
<rect x="0.5" y="0.5" width="31" height="31" rx="15.5" stroke="#19B2E6"/>
<path d="M11.4872 15.9966C11.4872 16.117 11.5089 16.2282 11.5525 16.3301C11.6008 16.4321 11.6734 16.5294 11.7701 16.622L17.421 21.9176C17.5854 22.0751 17.7837 22.1539 18.0158 22.1539C18.1754 22.1539 18.3181 22.1168 18.4438 22.0427C18.5744 21.9732 18.6784 21.8759 18.7557 21.7508C18.8331 21.6304 18.8718 21.496 18.8718 21.3477C18.8718 21.1253 18.7823 20.9284 18.6034 20.757L13.5111 15.9966L18.6034 11.2361C18.7823 11.0647 18.8718 10.8701 18.8718 10.6523C18.8718 10.4995 18.8331 10.3628 18.7557 10.2423C18.6784 10.1219 18.5744 10.0269 18.4438 9.95738C18.3181 9.88326 18.1754 9.84619 18.0158 9.84619C17.7837 9.84619 17.5854 9.92264 17.421 10.0755L11.7701 15.3711C11.6734 15.4638 11.6008 15.5611 11.5525 15.663C11.5089 15.7649 11.4872 15.8761 11.4872 15.9966Z" fill="#19B2E6"/>
</svg>
