<svg width="32" height="32" viewBox="0 0 32 32" fill="none" xmlns="http://www.w3.org/2000/svg">
<g clip-path="url(#clip0_22_7609)">
<rect width="32" height="32" rx="16" fill="#19B2E6"/>
<path d="M9.6 12.8H9.82857C10.7086 12.8 11.4286 13.52 11.4286 14.4V22.4C11.4286 23.28 10.7086 24 9.82857 24H9.6C8.72 24 8 23.28 8 22.4V14.4C8 13.52 8.72 12.8 9.6 12.8ZM16 8C16.88 8 17.6 8.72 17.6 9.6V22.4C17.6 23.28 16.88 24 16 24C15.12 24 14.4 23.28 14.4 22.4V9.6C14.4 8.72 15.12 8 16 8ZM22.4 17.1429C23.28 17.1429 24 17.8629 24 18.7429V22.4C24 23.28 23.28 24 22.4 24C21.52 24 20.8 23.28 20.8 22.4V18.7429C20.8 17.8629 21.52 17.1429 22.4 17.1429Z" fill="#FAFAFA"/>
</g>
<defs>
<clipPath id="clip0_22_7609">
<rect width="32" height="32" rx="16" fill="white"/>
</clipPath>
</defs>
</svg>
