<svg width="187" height="215" viewBox="0 0 187 215" fill="none" xmlns="http://www.w3.org/2000/svg">
<path fill-rule="evenodd" clip-rule="evenodd" d="M36.6122 214.75C39.9932 214.75 43.0091 212.625 44.1462 209.441L54.276 181.077C54.5602 180.281 55.3142 179.75 56.1594 179.75H93.75V141.25H73.8843C71.1299 141.25 69.1997 138.531 70.108 135.931L93.75 68.25L93.75 0.25H86.2564C82.9403 0.25 79.9679 2.29585 78.7838 5.39335L0.825169 209.322C-0.175965 211.94 1.7578 214.75 4.56146 214.75H36.6122ZM89.25 175.75V145.25H73.5087C68.0028 145.25 64.1426 139.817 65.954 134.618L89.25 67.75L89.75 4.25H85.125C84.2968 4.25 83.5542 4.76052 83.2576 5.53386L5.79162 207.534C5.28935 208.844 6.25629 210.25 7.65902 210.25H37.8474C38.6893 210.25 39.441 209.723 39.7278 208.931L50.7944 178.387C51.368 176.804 52.8714 175.75 54.5552 175.75H89.25Z" fill="#FAFAFA"/>
<path d="M182.518 214.316C185.299 214.284 187.2 211.492 186.21 208.893L108.712 5.40276C107.531 2.30034 104.556 0.25 101.236 0.25H93.75L93.75 68.25L119.75 141.25H93.75V179.75H132.75L142.874 209.279C143.994 212.544 147.082 214.723 150.534 214.684L182.518 214.316Z" fill="#FAFAFA"/>
</svg>
